<svg width="51" height="13" viewBox="0 0 51 13" fill="none" xmlns="http://www.w3.org/2000/svg">
<path d="M1.69598 9.44489V6.64889H3.55598C4.33598 6.64889 5.00798 6.42089 5.54798 5.96488C6.08798 5.49688 6.36398 4.86088 6.36398 4.05688C6.36398 3.34889 6.12398 2.74888 5.63198 2.25688C5.13998 1.76488 4.46798 1.51289 3.59198 1.51289H0.987981V9.44489H1.69598ZM3.33998 2.08888C4.09598 2.08888 4.65998 2.28089 5.03198 2.67689C5.41598 3.06089 5.60798 3.52888 5.60798 4.06889C5.60798 4.62089 5.42798 5.08889 5.06798 5.48489C4.70798 5.88089 4.17998 6.07289 3.47198 6.07289H1.69598V2.08888H3.33998ZM8.3257 0.912885H7.6417V9.44489H8.3257V0.912885ZM10.0792 7.38089C10.0792 8.83289 10.7392 9.56489 12.0712 9.56489C12.7552 9.56489 13.3552 9.26489 13.8472 8.66489C13.8592 8.66489 13.8712 8.66489 13.8832 8.67689L14.0032 9.44489H14.5312V4.10488H13.8472V6.86489C13.8472 8.24489 13.1272 8.95289 12.0712 8.95289C11.1952 8.95289 10.7512 8.37689 10.7512 7.23689V4.10488H10.0792V7.38089ZM24.329 6.13288C24.329 4.78889 23.645 3.98489 22.289 3.98489C21.629 3.98489 20.909 4.34489 20.477 5.05288C20.189 4.38089 19.577 3.98489 18.749 3.98489C18.017 3.98489 17.441 4.27288 17.021 4.86088C17.009 4.86088 16.997 4.86088 16.985 4.84889L16.865 4.11688H16.337V9.44489H17.021V6.69689C17.021 5.31689 17.729 4.57289 18.701 4.57289C19.517 4.57289 19.997 5.13688 19.997 6.18089V9.44489H20.681V6.69689C20.681 5.25689 21.389 4.57289 22.289 4.57289C23.201 4.57289 23.657 5.11288 23.657 6.18089V9.44489H24.329V6.13288ZM26.7459 8.62889C27.1659 9.21689 27.9699 9.56489 28.7739 9.56489C29.5419 9.56489 30.1899 9.30089 30.7299 8.76089C31.2699 8.22089 31.5339 7.54889 31.5339 6.76889C31.5339 5.94088 31.2939 5.28089 30.8019 4.76489C30.3099 4.24888 29.6499 3.98489 28.8099 3.98489C28.0059 3.98489 27.2259 4.33288 26.7579 4.95689L26.6979 4.94488V0.912885H26.0139V9.44489H26.5659L26.6859 8.66489L26.7459 8.62889ZM28.7619 8.97689C28.1499 8.97689 27.6459 8.76089 27.2619 8.34089C26.8779 7.92089 26.6859 7.39289 26.6859 6.76889C26.6859 6.15689 26.8779 5.62889 27.2499 5.19689C27.6339 4.76489 28.1379 4.54888 28.7619 4.54888C29.3979 4.54888 29.9019 4.76489 30.2739 5.18489C30.6459 5.60488 30.8379 6.13288 30.8379 6.76889C30.8379 7.39289 30.6459 7.92089 30.2499 8.34089C29.8659 8.76089 29.3739 8.97689 28.7619 8.97689ZM37.5362 8.28089C36.9482 8.74889 36.2642 8.97689 35.4842 8.97689C34.9202 8.97689 34.4402 8.79689 34.0442 8.43689C33.6602 8.06489 33.4562 7.57289 33.4442 6.94889H37.7522C37.7642 6.90089 37.7642 6.81689 37.7642 6.70889C37.7642 5.92889 37.5482 5.28089 37.1162 4.76489C36.6842 4.24888 36.0842 3.98489 35.3282 3.98489C34.5962 3.98489 33.9722 4.24888 33.4802 4.78889C32.9882 5.31689 32.7362 5.97689 32.7362 6.75689C32.7362 7.60889 32.9882 8.29289 33.4802 8.80889C33.9842 9.31289 34.6682 9.56489 35.5202 9.56489C36.3362 9.56489 37.0082 9.36089 37.5362 8.96489V8.28089ZM35.3402 4.58488C36.3482 4.58488 37.0082 5.29289 37.1162 6.39689H33.4562C33.5642 5.29289 34.2842 4.58488 35.3402 4.58488ZM41.5269 4.62089C41.7069 4.62089 41.8749 4.64489 42.0189 4.68089V4.02088C41.9229 3.99688 41.8029 3.98489 41.6589 3.98489C40.8549 3.98489 40.2669 4.34489 39.8829 5.07688C39.8709 5.07688 39.8589 5.07688 39.8469 5.06489L39.7269 4.11688H39.2589V9.44489H39.9429V6.81689C39.9429 5.55689 40.5549 4.62089 41.5269 4.62089ZM44.7613 4.62089C44.9413 4.62089 45.1093 4.64489 45.2533 4.68089V4.02088C45.1573 3.99688 45.0373 3.98489 44.8933 3.98489C44.0893 3.98489 43.5013 4.34489 43.1173 5.07688C43.1053 5.07688 43.0933 5.07688 43.0813 5.06489L42.9613 4.11688H42.4933V9.44489H43.1773V6.81689C43.1773 5.55689 43.7893 4.62089 44.7613 4.62089ZM46.1721 4.10488H45.4281L47.6361 9.26489L46.4961 12.0249H47.2041L50.4921 4.10488H49.8201L48.0321 8.47289H47.9601L46.1721 4.10488Z" fill="black"/>
</svg>
